<?xml version="1.0" encoding="UTF-8" standalone="no"?>
<!-- Generator: Adobe Illustrator 13.0.0, SVG Export Plug-In . SVG Version: 6.00 Build 14948)  -->

<svg
   xmlns:dc="http://purl.org/dc/elements/1.1/"
   xmlns:cc="http://creativecommons.org/ns#"
   xmlns:rdf="http://www.w3.org/1999/02/22-rdf-syntax-ns#"
   xmlns:svg="http://www.w3.org/2000/svg"
   xmlns="http://www.w3.org/2000/svg"
   xmlns:xlink="http://www.w3.org/1999/xlink"
   xmlns:sodipodi="http://sodipodi.sourceforge.net/DTD/sodipodi-0.dtd"
   xmlns:inkscape="http://www.inkscape.org/namespaces/inkscape"
   version="1.1"
   id="Layer_1"
   x="0px"
   y="0px"
   width="614.044px"
   height="347px"
   viewBox="0 0 614.044 347"
   enable-background="new 0 0 614.044 347"
   xml:space="preserve"
   sodipodi:version="0.32"
   inkscape:version="0.48.0 r9654"
   sodipodi:docname="ET_logo.svg"
   inkscape:output_extension="org.inkscape.output.svg.inkscape"><metadata
   id="metadata74"><rdf:RDF><cc:Work
       rdf:about=""><dc:format>image/svg+xml</dc:format><dc:type
         rdf:resource="http://purl.org/dc/dcmitype/StillImage" /><dc:title></dc:title></cc:Work></rdf:RDF></metadata><defs
   id="defs72"><linearGradient
     id="linearGradient3233"><stop
       style="stop-color:#3092ff;stop-opacity:1;"
       offset="0"
       id="stop3235" /><stop
       style="stop-color:#3092ff;stop-opacity:0;"
       offset="1"
       id="stop3237" /></linearGradient><inkscape:perspective
     sodipodi:type="inkscape:persp3d"
     inkscape:vp_x="-376.0835 : 63.260903 : 1"
     inkscape:vp_y="0 : 1298.3409 : 0"
     inkscape:vp_z="979.99396 : 63.260903 : 1"
     inkscape:persp3d-origin="301.95521 : -11.826471 : 1"
     id="perspective76" /><inkscape:perspective
     sodipodi:type="inkscape:persp3d"
     inkscape:vp_x="0 : 526.18109 : 1"
     inkscape:vp_y="0 : 1000 : 0"
     inkscape:vp_z="744.09448 : 526.18109 : 1"
     inkscape:persp3d-origin="372.04724 : 350.78739 : 1"
     id="perspective2492" /><inkscape:perspective
     id="perspective2426"
     inkscape:persp3d-origin="372.04724 : 350.78739 : 1"
     inkscape:vp_z="744.09448 : 526.18109 : 1"
     inkscape:vp_y="0 : 1000 : 0"
     inkscape:vp_x="0 : 526.18109 : 1"
     sodipodi:type="inkscape:persp3d" /><linearGradient
     id="linearGradient4790"><stop
       id="stop4792"
       offset="0"
       style="stop-color:#30e9ff;stop-opacity:1;" /><stop
       id="stop4794"
       offset="1"
       style="stop-color:#1224ff;stop-opacity:0;" /></linearGradient><linearGradient
     id="linearGradient4830"><stop
       style="stop-color:#30e9ff;stop-opacity:1;"
       offset="0"
       id="stop4832" /><stop
       style="stop-color:#1224ff;stop-opacity:0"
       offset="1"
       id="stop4834" /></linearGradient><linearGradient
     id="linearGradient5232"
     inkscape:collect="always"><stop
       id="stop5234"
       offset="0"
       style="stop-color:#9594a5;stop-opacity:1;" /><stop
       id="stop5236"
       offset="1"
       style="stop-color:#9594a5;stop-opacity:0;" /></linearGradient><radialGradient
     gradientUnits="userSpaceOnUse"
     gradientTransform="matrix(2.0235936,0,0,1.9368844,-54.10423,-639.29444)"
     r="2.9606064"
     fy="682.36217"
     fx="52.857142"
     cy="682.36217"
     cx="52.857142"
     id="radialGradient2683"
     xlink:href="#linearGradient5232"
     inkscape:collect="always" /><radialGradient
     gradientUnits="userSpaceOnUse"
     gradientTransform="matrix(2.0235936,0,0,1.5956865,-29.24553,-345.20333)"
     r="2.9606064"
     fy="579.50504"
     fx="28.571429"
     cy="579.50504"
     cx="28.571429"
     id="radialGradient2681"
     xlink:href="#linearGradient5232"
     inkscape:collect="always" /><radialGradient
     gradientUnits="userSpaceOnUse"
     gradientTransform="matrix(1.4602923,0,0,1.3064747,-56.371664,-167.95034)"
     r="4.3891788"
     fy="548.00707"
     fx="122.46928"
     cy="548.00707"
     cx="122.46928"
     id="radialGradient2679"
     xlink:href="#linearGradient5232"
     inkscape:collect="always" /><radialGradient
     gradientUnits="userSpaceOnUse"
     gradientTransform="matrix(1.6823959,0,0,1.4250876,-123.7355,-189.56375)"
     r="2.9606064"
     fy="449.50503"
     fx="184.28571"
     cy="449.50503"
     cx="184.28571"
     id="radialGradient2677"
     xlink:href="#linearGradient5232"
     inkscape:collect="always" /><radialGradient
     gradientUnits="userSpaceOnUse"
     gradientTransform="matrix(1.8529946,0,0,1.5956865,-34.031535,-201.92022)"
     r="2.9606064"
     fy="342.36218"
     fx="42.857148"
     cy="342.36218"
     cx="42.857148"
     id="radialGradient2675"
     xlink:href="#linearGradient5232"
     inkscape:collect="always" /><radialGradient
     gradientUnits="userSpaceOnUse"
     gradientTransform="matrix(1.4602923,0,0,1.1914016,-51.899649,-56.714395)"
     r="4.3891788"
     fy="309.50503"
     fx="117.14286"
     cy="309.50503"
     cx="117.14286"
     id="radialGradient2673"
     xlink:href="#linearGradient5232"
     inkscape:collect="always" /><radialGradient
     gradientUnits="userSpaceOnUse"
     gradientTransform="matrix(1.8529946,0,0,1.5956865,-182.69631,-155.96726)"
     r="2.9606064"
     fy="265.21932"
     fx="217.14285"
     cy="265.21932"
     cx="217.14285"
     id="radialGradient2671"
     xlink:href="#linearGradient5232"
     inkscape:collect="always" /><radialGradient
     gradientUnits="userSpaceOnUse"
     gradientTransform="matrix(2.0235936,0,0,1.5956865,-635.98438,-189.7922)"
     r="2.9606064"
     fy="315.21932"
     fx="624.28571"
     cy="315.21932"
     cx="624.28571"
     id="radialGradient2669"
     xlink:href="#linearGradient5232"
     inkscape:collect="always" /><radialGradient
     gradientUnits="userSpaceOnUse"
     gradientTransform="matrix(2.0235936,0,0,1.7662854,-707.63593,-280.19823)"
     r="2.9606064"
     fy="362.36217"
     fx="694.28571"
     cy="362.36217"
     cx="694.28571"
     id="radialGradient2667"
     xlink:href="#linearGradient5232"
     inkscape:collect="always" /><radialGradient
     gradientUnits="userSpaceOnUse"
     gradientTransform="matrix(1.8529946,0,0,1.5956865,-604.31937,-290.20792)"
     r="2.9606064"
     fy="483.79075"
     fx="711.42857"
     cy="483.79075"
     cx="711.42857"
     id="radialGradient2665"
     xlink:href="#linearGradient5232"
     inkscape:collect="always" /><radialGradient
     gradientUnits="userSpaceOnUse"
     gradientTransform="matrix(1.8529946,0,0,1.5956865,-570.19959,-325.09813)"
     r="2.9606064"
     fy="542.36218"
     fx="671.42857"
     cy="542.36218"
     cx="671.42857"
     id="radialGradient2663"
     xlink:href="#linearGradient5232"
     inkscape:collect="always" /><radialGradient
     gradientUnits="userSpaceOnUse"
     gradientTransform="matrix(1.5117968,0,0,1.5956865,-304.10056,-333.60794)"
     r="2.9606064"
     fy="556.64789"
     fx="597.14285"
     cy="556.64789"
     cx="597.14285"
     id="radialGradient2661"
     xlink:href="#linearGradient5232"
     inkscape:collect="always" /><radialGradient
     gradientUnits="userSpaceOnUse"
     gradientTransform="matrix(1.5117968,0,0,1.5956865,-325.30357,-398.28248)"
     r="2.9606064"
     fy="665.21933"
     fx="638.57143"
     cy="665.21933"
     cx="638.57143"
     id="radialGradient2659"
     xlink:href="#linearGradient5232"
     inkscape:collect="always" /><radialGradient
     r="208.09373"
     fy="493.24826"
     fx="400.14297"
     cy="493.24826"
     cx="400.14297"
     gradientTransform="matrix(2.9534862,-1.7153765e-2,-1.9047392e-3,0.1176051,-824.80745,550.18717)"
     gradientUnits="userSpaceOnUse"
     id="radialGradient2657"
     xlink:href="#linearGradient4830"
     inkscape:collect="always" /><radialGradient
     gradientUnits="userSpaceOnUse"
     gradientTransform="matrix(1.9504639,2.1875361e-2,-1.2989617e-2,1.158196,-421.77153,-113.92598)"
     r="208.09373"
     fy="493.24826"
     fx="400.14297"
     cy="493.24826"
     cx="400.14297"
     id="radialGradient2655"
     xlink:href="#linearGradient4790"
     inkscape:collect="always" /><inkscape:perspective
     sodipodi:type="inkscape:persp3d"
     inkscape:vp_x="0 : 526.18109 : 1"
     inkscape:vp_y="0 : 1000 : 0"
     inkscape:vp_z="744.09448 : 526.18109 : 1"
     inkscape:persp3d-origin="372.04724 : 350.78739 : 1"
     id="perspective2653" /><inkscape:perspective
     id="perspective2651"
     inkscape:persp3d-origin="372.04724 : 350.78739 : 1"
     inkscape:vp_z="744.09448 : 526.18109 : 1"
     inkscape:vp_y="0 : 1000 : 0"
     inkscape:vp_x="0 : 526.18109 : 1"
     sodipodi:type="inkscape:persp3d" /><linearGradient
     id="linearGradient2645"><stop
       id="stop2647"
       offset="0"
       style="stop-color:#3fe9ff;stop-opacity:1;" /><stop
       id="stop2649"
       offset="1"
       style="stop-color:#1224ff;stop-opacity:0;" /></linearGradient><linearGradient
     id="linearGradient2639"><stop
       style="stop-color:#52ebff;stop-opacity:1;"
       offset="0"
       id="stop2641" /><stop
       style="stop-color:#1224ff;stop-opacity:0"
       offset="1"
       id="stop2643" /></linearGradient><filter
     id="filter4557"
     inkscape:label="Drop shadow"
     width="1.5"
     height="1.5"
     x="-.25"
     y="-.25"><feGaussianBlur
       id="feGaussianBlur4559"
       in="SourceAlpha"
       stdDeviation="2"
       result="blur" /><feColorMatrix
       id="feColorMatrix4561"
       result="bluralpha"
       type="matrix"
       values="1 0 0 0 0 0 1 0 0 0 0 0 1 0 0 0 0 0 0.5 0 " /><feOffset
       id="feOffset4563"
       in="bluralpha"
       dx="4"
       dy="4"
       result="offsetBlur" /><feMerge
       id="feMerge4565"
       result="fbSourceGraphic"><feMergeNode
         id="feMergeNode4567"
         in="offsetBlur" /><feMergeNode
         id="feMergeNode4569"
         in="SourceGraphic" /></feMerge><feColorMatrix
       result="fbSourceGraphicAlpha"
       in="fbSourceGraphic"
       values="0 0 0 -1 0 0 0 0 -1 0 0 0 0 -1 0 0 0 0 1 0"
       id="feColorMatrix4571" /><feGaussianBlur
       id="feGaussianBlur4573"
       in="fbSourceGraphicAlpha"
       stdDeviation="2"
       result="blur" /><feColorMatrix
       id="feColorMatrix4575"
       result="bluralpha"
       type="matrix"
       values="1 0 0 0 0 0 1 0 0 0 0 0 1 0 0 0 0 0 0.5 0 " /><feOffset
       id="feOffset4577"
       in="bluralpha"
       dx="-4"
       dy="4"
       result="offsetBlur" /><feMerge
       id="feMerge4579"><feMergeNode
         id="feMergeNode4581"
         in="offsetBlur" /><feMergeNode
         id="feMergeNode4583"
         in="fbSourceGraphic" /></feMerge></filter></defs><sodipodi:namedview
   inkscape:window-height="669"
   inkscape:window-width="1077"
   inkscape:pageshadow="2"
   inkscape:pageopacity="0.0"
   guidetolerance="10.0"
   gridtolerance="10.0"
   objecttolerance="10.0"
   borderopacity="1.0"
   bordercolor="#666666"
   pagecolor="#ffffff"
   id="base"
   showgrid="false"
   inkscape:zoom="0.88592999"
   inkscape:cx="326.71585"
   inkscape:cy="141.38585"
   inkscape:window-x="138"
   inkscape:window-y="95"
   inkscape:current-layer="Layer_1"
   showguides="true"
   inkscape:guide-bbox="true"
   inkscape:object-paths="true"
   inkscape:window-maximized="0" />

<path
   inkscape:connector-curvature="0"
   style="fill:#000000;fill-opacity:1;stroke:none;stroke-width:3;stroke-miterlimit:4;stroke-dasharray:none;marker-start:none;marker-mid:none;marker-end:none;filter:url(#filter4557)"
   d="m 443.91036,283.65514 c 1.09,-1.28856 1.75665,-3.46257 1.61104,-5.2542 -0.20741,-2.5519 -1.08521,-3.4764 -5.32008,-5.60303 -5.60106,-2.8127 -6.70942,-4.93893 -3.589,-6.88506 2.49486,-1.55605 5.39414,-0.10718 7.04231,3.51931 1.46349,3.21999 2.82489,2.94189 3.35593,-0.68546 0.70393,-4.80865 0.14211,-5.14647 -9.04983,-5.43989 -6.82019,-0.21783 -11.54192,5.62322 -8.47542,10.4846 0.52145,0.82659 2.91512,2.43536 5.31935,3.57509 5.32569,2.52464 6.53937,6.18099 2.39757,7.22312 -3.08258,0.77567 -7.20643,-1.56045 -8.17933,-4.63342 -0.35944,-1.13556 -1.02918,-2.06462 -1.48818,-2.06462 -0.79529,0 -2.55592,7.07177 -1.88846,7.58506 0.17574,0.13515 2.37735,0.68506 4.89235,1.222 5.56119,1.18727 10.80161,-0.005 13.37175,-3.0435 z m -279.92047,2.80564 c 2.43728,-0.48877 3.18669,-1.33996 4.05677,-4.6078 1.42281,-5.34402 0.0283,-5.87719 -3.83507,-1.466 -2.59531,2.96343 -3.87234,3.61698 -7.06715,3.61698 -2.14468,0 -4.16755,-0.43494 -4.49532,-0.96646 -0.32769,-0.5316 -0.0717,-3.05293 0.5688,-5.60302 0.98947,-3.93948 1.54267,-4.63657 3.67947,-4.63657 1.66035,0 2.69553,0.69238 3.04636,2.03744 1.00945,3.86993 3.17646,2.13032 4.44935,-3.5718 1.46657,-6.56987 0.57123,-8.25935 -2.29013,-4.32145 -1.23878,1.7048 -2.98464,2.79966 -4.46453,2.79966 -2.19276,0 -2.36907,-0.32359 -1.80449,-3.31091 1.01472,-5.36846 2.19535,-6.87641 5.38358,-6.87641 2.85016,0 6.13381,2.22044 6.13381,4.14763 0,2.1069 3.0544,0.76804 3.64683,-1.59856 1.30277,-5.20352 0.42895,-5.6053 -12.19234,-5.6053 -11.95861,0 -14.23258,0.7407 -11.3,3.6807 0.89291,0.89519 1.40745,2.38162 1.14344,3.30306 -0.50383,1.75847 -3.41505,14.2985 -4.23211,18.22988 -0.30031,1.44486 -1.22042,2.29211 -2.48933,2.29211 -2.23361,0 -2.72615,1.57923 -0.74275,2.38154 1.81107,0.7326 19.23936,0.79012 22.80481,0.0753 z m 14.25337,-0.40548 c 0.68111,-0.008 1.01057,-0.60892 0.73219,-1.33618 -0.27839,-0.72726 0.65382,-2.41486 2.07167,-3.75009 2.5245,-2.37769 2.60839,-2.3872 4.0623,-0.46049 1.90787,2.52849 1.9017,3.14181 -0.0395,3.88864 -2.93778,1.13014 -0.36504,2.66309 4.44309,2.64737 5.47998,-0.0179 8.89861,-1.47362 6.04179,-2.57264 -0.94406,-0.3632 -2.89782,-2.77924 -4.34166,-5.36901 l -2.62503,-4.70862 4.37008,-3.83842 c 2.40358,-2.11122 4.94172,-3.84565 5.64037,-3.85445 0.69857,-0.009 1.27021,-0.70353 1.27021,-1.54395 0,-1.10366 -1.12906,-1.52816 -4.06465,-1.52816 -3.27342,0 -4.06473,0.36595 -4.06473,1.87957 0,1.0338 -0.94245,2.73468 -2.09433,3.7798 -1.79239,1.62614 -2.22971,1.68563 -3.03296,0.41255 -1.30651,-2.07076 -1.20199,-2.70836 0.55458,-3.38407 3.60249,-1.38592 1.14149,-2.68785 -5.08083,-2.68785 -6.24718,0 -8.68064,1.30295 -5.04543,2.70144 0.85774,0.32996 2.47634,2.49313 3.59688,4.80701 l 2.03732,4.20704 -4.38324,4.16783 c -2.41072,2.29234 -5.02488,4.38235 -5.80913,4.64441 -2.32902,0.77834 -0.092,3.15367 2.35104,2.49643 1.19444,-0.32132 2.72899,-0.59046 3.41002,-0.59816 z m 37.14684,0.38568 c 0.33971,-0.34057 0.10907,-1.43559 -0.51251,-2.43348 -1.57767,-2.53265 2.0724,-16.65545 4.42092,-17.10524 0.98922,-0.18946 1.87555,0.56091 2.21923,1.8787 0.82428,3.16003 3.19059,1.88625 3.56545,-1.91917 l 0.31843,-3.23249 -10.75922,0 c -10.71707,0 -10.76336,0.0107 -11.78807,2.71276 -1.43961,3.79591 0.50846,5.68844 2.67036,2.5941 0.86481,-1.2378 2.39968,-2.25063 3.41066,-2.25063 1.57987,0 1.73311,0.53718 1.09009,3.82027 -1.64516,8.39962 -3.32028,13.38665 -4.67105,13.90631 -0.78157,0.30065 -1.42102,1.01942 -1.42102,1.59738 0,1.11034 10.38931,1.50167 11.45673,0.43149 z m 19.27338,-0.042 c 0.47833,-0.29641 0.43082,-1.07114 -0.10565,-1.72162 -1.05679,-1.28142 -0.37471,-6.78574 0.84085,-6.78574 0.40889,0 1.56354,1.82346 2.566,4.05208 2.13891,4.7553 2.83756,5.03653 12.20427,4.91387 8.41313,-0.11017 8.9639,-0.31966 7.40758,-2.81805 -1.68088,-2.6983 0.62134,-5.30898 4.16227,-4.71994 1.46105,0.24313 2.9995,0.47966 3.41863,0.52571 1.44546,0.15889 0.7585,3.94214 -0.82656,4.55193 -2.97806,1.14562 -0.33589,2.66301 4.63718,2.66301 5.38367,0 7.05449,-1.22318 4.78231,-3.501 -0.79497,-0.79704 -1.96082,-5.45945 -2.59329,-10.37128 -1.81764,-14.11667 -3.20041,-14.05608 -12.81448,0.56146 -7.8242,11.89606 -9.96863,12.90668 -13.75059,6.48053 l -2.22118,-3.77414 3.14608,-2.593 c 3.31297,-2.73044 4.16413,-6.74951 1.90844,-9.01098 -1.37132,-1.37469 -19.10397,-1.75289 -19.10397,-0.40744 0,0.44822 0.49952,1.31575 1.10998,1.92774 1.53625,1.54017 -1.88286,15.40554 -4.31348,17.49193 -1.22124,1.04826 -1.46073,1.80593 -0.71668,2.26697 1.33956,0.82996 9.03106,1.03081 10.26229,0.26796 z m 26.57458,-11.13753 c 0.3393,-0.88623 0.61679,-1.8031 0.61679,-2.03743 0,-0.23433 0.68598,-0.42607 1.52432,-0.42607 0.84678,0 1.52423,0.90557 1.52423,2.03744 0,1.39284 -0.67745,2.03751 -2.14111,2.03751 -1.53479,0 -1.96642,-0.45624 -1.52423,-1.61145 z m -24.78731,-3.39896 c 0,-3.30171 1.14361,-5.17696 3.15721,-5.17696 2.22313,0 2.69009,3.91779 0.70418,5.90863 -1.84372,1.84837 -3.86139,1.46607 -3.86139,-0.73167 z m 74.52109,14.51633 c 0.37381,-0.37483 -0.0798,-1.52273 -1.00806,-2.55104 -1.49159,-1.65231 -1.53966,-2.55017 -0.41344,-7.7232 0.70092,-3.21944 1.68803,-6.90651 2.19365,-8.19358 0.50553,-1.28699 0.91922,-3.43751 0.91922,-4.77887 0,-1.34129 0.41604,-2.69649 0.92449,-3.01152 1.58969,-0.98493 4.27264,0.62644 5.22523,3.13827 1.35759,3.57989 3.6811,2.96719 4.45625,-1.17494 0.36877,-1.97064 0.39265,-4.03353 0.0531,-4.5843 -0.35473,-0.57545 -6.40976,-1.00143 -14.23485,-1.00143 l -13.61749,0 -1.22757,4.10763 c -1.60927,5.38481 -0.0122,7.36778 2.92202,3.62814 2.40001,-3.05882 7.36796,-5.33718 7.37218,-3.38092 0.002,1.15316 -1.97316,10.20005 -4.22122,19.33063 -0.676,2.74537 -1.48461,3.82027 -2.87387,3.82027 -2.3326,0 -3.59055,1.65789 -1.80538,2.37942 1.92752,0.77904 14.55782,0.77527 15.33573,-0.005 z m 30.99713,-1.91344 c 2.20299,-4.84723 1.48225,-6.22726 -1.67082,-3.19885 -1.87766,1.8035 -3.95786,2.73743 -6.09694,2.73743 -3.51535,0 -3.95063,-1.06822 -2.25594,-5.5367 1.15522,-3.04617 2.82043,-3.34218 4.67146,-0.83036 1.71443,2.32637 3.02906,0.91255 3.94535,-4.24303 l 0.7088,-3.98827 -2.58216,1.69616 c -4.13693,2.71747 -5.55648,2.23655 -4.76557,-1.61475 0.60388,-2.94056 1.01147,-3.27099 3.64414,-2.95487 1.6303,0.19575 3.4836,1.06807 4.11842,1.93843 1.51107,2.07177 3.49488,0.77629 3.49488,-2.28221 0,-2.34249 -0.28018,-2.42421 -9.3996,-2.74176 -5.16968,-0.18002 -9.61082,-0.19173 -9.86915,-0.0259 -0.25825,0.16573 0.0577,1.14783 0.70223,2.1825 1.55736,2.49996 -1.91291,17.32793 -4.37918,18.71158 -3.04539,1.70857 0.57107,2.7133 9.82643,2.7298 8.37383,0.015 8.77623,-0.0897 9.90765,-2.57917 z m 15.60706,1.96059 c 0.50845,-0.31503 0.3907,-1.19733 -0.26556,-1.99013 -1.21572,-1.46851 -0.51991,-6.54426 0.89713,-6.54426 0.43691,0 1.79409,2.06289 3.01598,4.5843 1.99582,4.11848 2.57818,4.58431 5.73141,4.58431 4.07627,0 5.29393,-1.2488 3.04344,-3.12129 -1.62754,-1.35418 -4.4945,-6.32495 -4.4945,-7.79259 0,-0.4553 1.02235,-1.28031 2.27202,-1.83336 3.43527,-1.52054 4.65602,-6.03695 2.32854,-8.61533 -1.59018,-1.76154 -3.11571,-2.06832 -10.28706,-2.06832 -8.14652,0 -11.18046,1.02493 -8.11891,2.74254 1.28702,0.72208 1.25299,1.87029 -0.2615,8.80966 -1.13321,5.19267 -2.3598,8.32638 -3.51218,8.97294 -0.97395,0.54637 -1.54153,1.36542 -1.26135,1.82 0.5804,0.9414 9.52457,1.31151 10.91254,0.45153 z m 1.44391,-15.41081 c 0.93538,-3.92321 1.26347,-4.32963 3.49545,-4.32963 1.38066,0 1.97236,0.70291 1.97236,2.34312 0,2.81687 -1.76495,4.78798 -4.28725,4.78798 -1.50101,0 -1.72296,-0.52664 -1.18056,-2.80147 z m 26.12102,15.37466 c 0.36772,-0.36862 0.18021,-1.26027 -0.41669,-1.98133 -1.27467,-1.5397 -0.87227,-5.70816 0.59487,-6.16298 0.55889,-0.1732 1.93077,1.62087 3.04855,3.98693 2.10684,4.4596 3.98117,5.45309 8.25778,4.37709 l 2.50809,-0.63108 -3.09654,-3.7662 c -3.04319,-3.70114 -4.07976,-7.3769 -2.08044,-7.3769 1.73668,0 5.08083,-3.97515 5.08083,-6.03962 0,-3.99778 -2.6598,-5.16643 -11.75851,-5.16643 -6.71178,0 -8.56483,0.31228 -8.56483,1.44321 0,0.79382 0.46866,1.59982 1.04152,1.79124 0.67096,0.22427 0.49416,2.15704 -0.49709,5.43329 -0.84621,2.79684 -1.54356,6.12111 -1.54957,7.38727 -0.006,1.26617 -0.90216,3.06708 -1.99127,4.00195 -1.0892,0.93495 -1.74813,2.07657 -1.46431,2.53689 0.61192,0.99263 9.92162,1.13517 10.88761,0.16667 z m 1.2331,-15.88402 c 0.95674,-4.47186 1.17682,-4.72921 3.51884,-4.11518 3.55757,0.93267 1.67772,7.42601 -2.1498,7.42601 -1.81155,0 -1.98672,-0.42363 -1.36904,-3.31083 z m 34.90675,15.16194 c 1.50986,-1.82393 2.49948,-6.75744 1.35548,-6.75744 -0.55524,0 -1.75853,1.14609 -2.67401,2.54687 -2.07517,3.17512 -8.74033,3.75929 -8.71702,0.76404 0.0442,-5.66652 2.46667,-7.98009 5.06703,-4.83899 1.91802,2.31695 2.53034,1.89701 3.71349,-2.54687 0.91248,-3.42713 0.84248,-4.07487 -0.44016,-4.07487 -0.83882,0 -2.11633,0.80223 -2.83894,1.78276 -2.04041,2.76878 -4.00228,0.2652 -2.72412,-3.4764 0.7931,-2.32182 1.5365,-2.85004 3.77774,-2.68423 1.53463,0.11354 3.41944,1.03042 4.18842,2.03751 1.21904,1.59652 1.5287,1.63526 2.41795,0.30285 0.561,-0.84042 1.02698,-2.33031 1.03551,-3.31083 0.0137,-1.57389 -1.11567,-1.78284 -9.63803,-1.78284 -7.65114,0 -9.65354,0.2994 -9.65354,1.44321 0,0.79382 0.44146,1.59605 0.98119,1.78284 1.3934,0.48224 -2.85333,16.45168 -4.64474,17.46592 -3.05237,1.72814 -0.0415,2.61154 8.73505,2.56274 5.52765,-0.0307 9.47203,-0.50771 10.0587,-1.21627 z m 41.57979,-1.06358 c -1.307,-0.96898 -1.22595,-2.2067 0.63953,-9.76881 1.28206,-5.19684 2.63608,-8.61847 3.38638,-8.55733 2.70552,0.22049 3.06707,0.48633 3.67208,2.69963 0.52275,1.9121 0.79253,2.03877 1.62721,0.76411 0.55036,-0.84049 1.00766,-2.5596 1.01627,-3.82026 0.015,-2.22218 -0.28846,-2.2922 -9.94289,-2.2922 -10.64366,0 -12.39723,0.6901 -12.39723,4.87859 l 0,2.43372 3.12643,-2.6374 c 3.26481,-2.75409 5.00288,-3.32654 5.00288,-1.64759 0,0.54432 -0.76184,4.46557 -1.69299,8.71386 -1.23318,5.62652 -2.26804,8.05513 -3.81063,8.94285 -1.89805,1.09235 -1.59083,1.27395 2.9632,1.75117 6.31295,0.66149 8.57628,0.14592 6.40976,-1.46034 z M 64.005736,284.03814 c -0.287403,-1.10177 0.250209,-5.4857 1.194846,-9.74201 1.918672,-8.64589 3.748744,-10.42268 6.698056,-6.50285 1.644912,2.18627 1.91112,2.25683 2.51914,0.66841 1.54137,-4.02701 -0.03403,-4.83317 -9.413319,-4.81675 -9.719481,0.017 -10.83531,0.37365 -11.903386,3.80463 -0.883973,2.83966 0.53688,2.96115 2.980008,0.25468 1.875144,-2.07727 4.080083,-2.648 4.919309,-1.2734 0.887465,1.45366 -3.515509,17.06862 -5.170573,18.33715 -1.396085,1.07003 -0.834029,1.27339 3.518514,1.27339 4.650177,0 5.126475,-0.20486 4.657405,-2.00325 z m 21.193589,0.6655 c -0.630435,-0.7616 -0.847104,-2.94622 -0.503016,-5.0719 0.525186,-3.24458 1.044935,-3.81681 3.965579,-4.36616 1.848669,-0.34764 3.848227,-0.33043 4.443335,0.0383 1.89902,1.17659 1.200774,6.47236 -1.141816,8.66036 l -2.223941,2.07711 5.904957,0 c 5.110317,0 5.736197,-0.20376 4.651067,-1.51463 -1.574419,-1.90181 1.15506,-15.19322 3.69864,-18.01088 1.46942,-1.6278 1.47827,-1.89049 0.0819,-2.42774 -0.86123,-0.3313 -3.06325,-0.45546 -4.893401,-0.2759 -3.205529,0.31448 -3.330187,0.49451 -3.399297,4.91073 l -0.07171,4.5843 -4.572704,0 c -4.293096,0 -4.551507,-0.15574 -4.224311,-2.54679 0.191656,-1.40077 0.992957,-3.2717 1.780534,-4.15761 1.89772,-2.13464 0.867081,-2.97357 -3.653245,-2.97357 -4.285704,0 -5.511166,0.79956 -4.00829,2.615 1.449275,1.7507 -2.434357,16.78605 -4.780033,18.50562 -1.496866,1.0973 -0.873497,1.29147 4.145781,1.29147 4.76249,0 5.692918,-0.25923 4.800009,-1.33775 z m 41.558925,-1.35033 c 1.44075,-3.79889 0.5238,-4.09239 -3.13707,-1.00418 -1.74318,1.47048 -3.78286,2.67355 -4.53259,2.67355 -2.45393,0 -4.45673,-1.16354 -4.09056,-2.37643 0.19751,-0.65403 0.63458,-2.44983 0.97136,-3.99063 0.70864,-3.24215 3.95461,-3.84534 5.52773,-1.02721 1.33388,2.38956 1.93817,1.54395 2.75132,-3.84997 l 0.68526,-4.54611 -2.20259,2.29219 c -4.09397,4.2604 -6.36014,2.50176 -4.18094,-3.24459 1.26298,-3.33008 5.36125,-3.5373 7.56546,-0.38245 1.78362,2.55292 2.46197,2.24992 2.85356,-1.27489 0.2719,-2.4477 0.14456,-2.48817 -8.7361,-2.78002 l -9.01198,-0.29609 0.63035,2.51772 c 0.81105,3.23956 -2.09205,15.87207 -4.18127,18.19444 -1.5166,1.68586 -1.06897,1.78275 8.23236,1.78275 9.69488,0 9.85096,-0.0386 10.8557,-2.68808 z m 356.74176,1.30585 c -0.66,-0.79719 -0.87252,-2.74442 -0.5022,-4.60065 0.76094,-3.81453 2.30263,-3.04059 4.90826,2.46421 1.50255,3.17441 2.07589,3.51867 5.85964,3.51867 l 4.19418,0 -2.02189,-2.29211 c -1.11201,-1.26067 -2.79436,-3.53997 -3.73843,-5.06506 -1.69599,-2.73963 -1.68016,-2.79181 1.32194,-4.34809 3.75183,-1.9451 5.05282,-6.0973 2.66142,-8.49471 -1.98283,-1.98777 -17.88452,-3.19822 -17.88452,-1.36133 0,0.58653 0.3955,1.31151 0.87878,1.61098 1.32478,0.82078 -2.79623,17.21415 -4.69501,18.67693 -1.3796,1.06272 -0.67567,1.27339 4.25453,1.27339 4.85896,0 5.70444,-0.24532 4.7633,-1.38223 z m 1.50401,-13.644 c 0.98768,-5.38488 3.55904,-6.74582 5.85396,-3.09843 1.36742,2.1733 -1.71881,6.91862 -4.4997,6.91862 -1.8217,0 -1.97543,-0.43353 -1.35426,-3.82019 z m 25.84288,13.5358 c -0.97493,-1.17769 -0.86351,-3.20907 0.53063,-9.67797 0.97054,-4.50313 2.15564,-8.18746 2.63372,-8.18746 0.47801,0 0.8692,-0.68765 0.8692,-1.52807 0,-1.1329 -1.1877,-1.52816 -4.59212,-1.52816 -4.36123,0 -4.56084,0.1251 -3.96955,2.48668 0.87163,3.4819 -2.35956,16.95539 -4.4478,18.54641 -1.47145,1.1211 -0.848,1.31897 4.24242,1.34663 5.1242,0.0278 5.79305,-0.17822 4.7335,-1.45806 z m 10.28389,0.14765 c -1.92379,-2.32386 1.38309,-5.78831 5.52506,-5.78831 4.00366,0 5.51539,2.18414 3.61889,5.22858 -1.09821,1.76288 -0.80991,1.90251 3.92765,1.90251 5.05923,0 5.09748,-0.024 3.64674,-2.29211 -0.80642,-1.26067 -2.10229,-6.1879 -2.87971,-10.94932 -1.91502,-11.72829 -3.11247,-11.76468 -10.4516,-0.31707 -3.16443,4.93579 -6.97027,10.00345 -8.45755,11.26136 l -2.70406,2.28709 4.44309,0.005 c 3.56213,0.004 4.22269,-0.2612 3.33149,-1.33775 z m 3.94365,-9.09914 c 0.0388,-1.53067 2.81345,-5.38182 3.43113,-4.76253 0.23981,0.24038 0.75136,1.69679 1.13686,3.23649 0.63027,2.51749 0.43391,2.79943 -1.94977,2.79943 -1.46024,0 -2.63609,-0.57191 -2.61822,-1.27339 z m 38.0132,7.7749 c 0.93416,-3.73131 0.18386,-3.98552 -2.83383,-0.96025 -2.6455,2.65217 -7.11783,3.48041 -8.31422,1.53971 -0.79667,-1.29234 2.37166,-16.23818 3.82264,-18.03233 1.16488,-1.44031 1.18608,-1.4231 -2.26747,-1.84059 -3.81582,-0.46135 -6.40334,0.49772 -5.21515,1.933 1.4012,1.69262 -2.39733,17.12629 -4.61567,18.75409 -1.43035,1.0496 0.0656,1.27339 8.51027,1.27339 10.20446,0 10.2484,-0.0107 10.91343,-2.66702 z m -274.13749,-5.04188 c 1.00595,-2.62812 -1.14295,-3.76903 -5.65832,-3.00421 -3.17573,0.53789 -4.16211,1.16653 -4.16211,2.65288 0,1.63149 0.74803,1.94785 4.60462,1.94785 3.24338,0 4.78531,-0.47195 5.21581,-1.59652 z m -98.98526,-40.63673 c 3.77465,-0.22442 8.30334,-1.12841 10.06373,-2.00883 1.76048,-0.88049 5.38993,-1.60083 8.06556,-1.60083 2.67563,0 5.14735,-0.45844 5.49281,-1.01872 0.34539,-0.56028 1.66449,-1.01871 2.93129,-1.01871 1.26688,0 3.37193,-1.14036 4.67803,-2.53415 1.88497,-2.0115 2.67092,-2.28763 3.81111,-1.33893 0.98135,0.81645 1.65352,0.85731 2.12121,0.12903 0.37658,-0.58644 2.97108,-1.35921 5.76552,-1.7173 10.73299,-1.37547 13.26415,-1.9506 14.89111,-3.38414 1.33786,-1.17871 2.07655,-1.23332 3.61938,-0.26741 1.5555,0.97392 2.60092,0.8702 5.29247,-0.52523 1.84477,-0.95633 5.932,-1.98777 9.08271,-2.29212 7.68094,-0.7418 12.7137,-3.64126 14.94999,-8.61297 1.36206,-3.02809 1.50523,-4.25686 0.60177,-5.16265 -0.65212,-0.65379 -1.18567,-1.99178 -1.18567,-2.97333 0,-3.07077 -7.00373,-9.01389 -10.62238,-9.01389 -1.75869,0 -3.71967,-0.5235 -4.3579,-1.1633 -1.00425,-1.00677 -10.04221,-1.21572 -18.04515,-0.41711 -2.26431,0.22592 -7.31558,1.44321 -9.65362,2.32638 -0.83834,0.3166 -2.59483,0.46928 -3.90329,0.33915 -2.59459,-0.25798 -6.77513,1.11199 -12.43142,4.07369 -2.54212,1.33108 -4.74836,1.7206 -7.3492,1.29752 -2.87273,-0.4674 -3.86073,-0.22812 -4.3514,1.05377 -0.75063,1.96105 -3.08575,2.19805 -3.79374,0.38504 -0.32386,-0.82918 -1.34273,-0.25822 -2.92072,1.63675 l -2.4234,2.91015 -1.25867,-2.76949 c -0.77994,-1.71604 -0.90428,-3.21048 -0.32679,-3.92886 1.01862,-1.26727 1.87733,-6.53271 2.82157,-17.30106 0.42164,-4.80842 0.20351,-7.73735 -0.70288,-9.43516 -1.13442,-2.12505 -1.07035,-2.64085 0.46818,-3.76864 1.02024,-0.74793 1.85679,-2.80996 1.95635,-4.82233 0.1729,-3.49675 0.2066,-3.52009 6.27081,-4.35689 3.35341,-0.46268 6.53141,-1.26711 7.06237,-1.78763 0.53095,-0.52044 2.72573,-0.94634 4.87732,-0.94634 2.1515,0 5.27005,-0.70408 6.92999,-1.5647 1.66002,-0.86053 7.05562,-2.41187 11.9902,-3.4474 4.93466,-1.03553 9.92787,-2.3956 11.09608,-3.02236 1.3973,-0.74974 2.33942,-0.79013 2.75375,-0.11811 0.95024,1.54152 5.24237,1.22507 6.97742,-0.51446 0.84264,-0.84474 1.76974,-1.15034 2.06022,-0.67917 0.29049,0.47116 1.94255,0.64852 3.67127,0.39416 2.47009,-0.36344 3.26522,-1.07389 3.71277,-3.31751 0.46412,-2.32614 1.06637,-2.8223 3.25158,-2.6785 2.07362,0.13642 2.75595,-0.34347 3.00778,-2.1157 0.21261,-1.49633 -0.19921,-2.29211 -1.18624,-2.29211 -0.83167,0 -3.40368,-1.82205 -5.71565,-4.04902 -3.29064,-3.16962 -4.25574,-4.88448 -4.4435,-7.89521 -0.22122,-3.54854 -0.49944,-3.87135 -3.59558,-4.17247 -1.88343,-0.18317 -4.0943,0.31047 -5.03902,1.12504 -1.04866,0.90422 -3.40563,1.34679 -6.25245,1.17407 -2.51305,-0.15252 -5.04088,0.11512 -5.61731,0.59478 -0.57651,0.47965 -4.69354,1.19073 -9.14906,1.58025 -8.44659,0.73842 -10.38955,1.34836 -13.16783,4.13365 -1.24544,1.24864 -1.96155,1.37955 -2.82287,0.51603 -1.41687,-1.42042 -6.32197,-1.50906 -8.83705,-0.15967 -1.3558,0.72742 -2.20331,0.58126 -3.13171,-0.54024 -1.02836,-1.2422 -0.90614,-3.0479 0.63636,-9.40184 1.04997,-4.32538 1.99087,-11.30254 2.09076,-15.50479 0.30015,-12.623398 0.78465,-13.759703 6.68117,-15.668862 2.80207,-0.907259 6.15841,-1.649569 7.4585,-1.649569 1.30002,0 2.64632,-0.45843 2.99179,-1.018733 0.34538,-0.560302 2.91008,-1.018725 5.69933,-1.018725 2.78925,0 6.47603,-0.728221 8.19281,-1.618262 2.0841,-1.080458 4.28806,-1.398858 6.63163,-0.958077 1.93061,0.363089 4.04711,0.221582 4.70337,-0.314479 0.65626,-0.53606 3.47953,-1.197228 6.27397,-1.469266 2.79453,-0.272045 6.90994,-1.049473 9.14557,-1.727623 2.23556,-0.678141 5.66506,-1.473878 7.62126,-1.768296 4.80407,-0.723073 6.32124,-2.045103 5.05947,-4.40878 -1.58595,-2.970781 -1.22375,-3.320024 2.76919,-2.670423 4.07732,0.663329 7.41823,-1.286472 7.40873,-4.323906 -0.009,-2.81553 -4.49361,-7.391129 -8.67431,-8.849857 -5.09586,-1.778001 -19.71816,-1.767887 -26.37838,0.01825 -3.41448,0.915706 -5.49395,1.030002 -6.3404,0.348505 -1.24601,-1.003158 -20.26032,0.63115 -23.63648,2.031603 -0.83833,0.347742 -2.89612,0.757233 -4.57278,0.909986 -6.17108,0.562211 -15.40493,2.276358 -21.33953,3.961398 -6.04447,1.716252 -6.42429,1.685684 -12.94198,-1.041741 -1.31796,-0.551533 -2.0184,-0.06792 -2.76927,1.912145 -0.69768,1.839545 -1.75203,2.650385 -3.44632,2.650385 -1.34265,0 -3.01752,0.696247 -3.72194,1.54721 -1.04826,1.266175 -0.94992,1.91382 0.5411,3.565557 1.70858,1.892705 1.71573,2.136108 0.11459,3.909755 -1.58311,1.753798 -1.58579,1.992549 -0.036,3.281992 1.42078,1.182156 1.56614,2.690328 0.96957,10.061576 -0.38599,4.76904 -1.18258,9.251727 -1.77014,9.961507 -0.75152,0.90779 -0.72488,1.70547 0.0897,2.68951 0.63701,0.76942 0.93124,2.03008 0.65399,2.80151 -0.27734,0.77142 -0.74291,4.84079 -1.03478,9.04304 -0.51999,7.48864 -1.05054,11.69717 -3.5199,27.92168 -0.67437,4.43107 -0.97956,9.00163 -0.67827,10.15692 0.30137,1.15521 -0.0867,4.40624 -0.86245,7.22453 -1.58863,5.77189 -2.73613,31.10175 -1.40891,31.10175 2.07459,0 0.6928,4.18912 -1.68016,5.09366 -2.68847,1.02469 -3.35098,3.87355 -1.36409,5.86541 0.89096,0.8933 0.87545,1.54269 -0.0639,2.67739 -0.98549,1.19049 -0.91703,2.1245 0.33304,4.548 1.30253,2.52518 1.40201,4.40341 0.5783,10.91695 -0.8843,6.99201 -0.79789,8.0277 0.77702,9.31202 1.29059,1.05251 1.42686,1.58913 0.50171,1.97535 -1.76437,0.73654 -1.58603,2.39701 0.50651,4.71498 1.50564,1.66795 2.62934,1.87006 7.36715,1.32502 3.07486,-0.35369 8.67893,-0.82674 12.4535,-1.05117 z m 234.00227,0.26451 c 2.84414,-1.29917 6.57145,-7.51826 6.57145,-10.96472 0,-1.14287 0.65325,-2.07806 1.45163,-2.07806 2.38937,0 4.64531,-3.00374 4.64531,-6.18515 0,-1.64084 -0.45722,-2.98338 -1.01611,-2.98338 -0.55888,0 -1.01618,-0.88364 -1.01618,-1.96357 0,-1.07993 -1.22278,-2.92775 -2.71729,-4.1063 -1.49451,-1.17855 -3.48733,-3.86703 -4.4284,-5.97432 -2.06899,-4.63294 -5.23643,-6.87296 -10.6071,-7.50152 -3.5778,-0.41876 -4.42645,-0.0608 -7.6172,3.21276 -1.97495,2.0262 -4.38673,5.18442 -5.35955,7.01825 -0.9729,1.83384 -2.18041,3.07934 -2.68334,2.76769 -1.65507,-1.02548 -4.01471,4.0784 -3.80219,8.22384 0.233,4.54407 3.73876,11.26168 6.41431,12.291 0.96616,0.37169 2.68993,1.74661 3.83061,3.05537 2.5219,2.8934 8.3765,6.11268 11.42579,6.28273 1.23122,0.0687 3.4399,-0.42386 4.90826,-1.09462 z m -109.54965,-8.25204 c 3.31882,0.8445 4.46754,0.72671 6.28039,-0.64421 2.65151,-2.00506 5.3001,-9.11211 4.20036,-11.27111 -0.45145,-0.88623 0.20814,-4.54745 1.56126,-8.66569 l 2.34292,-7.13118 -3.01469,-2.76784 c -2.65712,-2.43945 -3.32418,-2.62639 -5.62348,-1.57617 -2.29346,1.04764 -2.82595,0.90281 -4.40671,-1.19811 -2.28217,-3.03313 -6.63536,-2.29102 -7.5303,1.28369 -0.32793,1.30962 -1.75032,2.90826 -3.16094,3.55262 -1.41062,0.64436 -2.56478,1.86896 -2.56478,2.72148 0,0.85244 -0.8774,1.54992 -1.94978,1.54992 -1.07238,0 -3.42033,1.56296 -5.21759,3.47333 -2.50672,2.66427 -3.36438,4.59893 -3.68216,8.30564 -0.39005,4.55044 -0.19222,5.01642 3.39102,7.98739 4.35977,3.61486 11.1755,5.76042 13.67198,4.30386 1.03454,-0.6035 3.14154,-0.57537 5.7025,0.0764 z m 69.96804,-2.49855 c -0.3229,-1.5408 -0.1625,-3.46445 0.35643,-4.2747 0.5917,-0.92395 0.5519,-2.20669 -0.10671,-3.44049 -0.7633,-1.42969 -0.70409,-2.18162 0.21659,-2.75212 0.7369,-0.45655 1.0161,-1.74614 0.66746,-3.08271 -0.32971,-1.26381 0.0499,-3.55647 0.84337,-5.09484 0.79351,-1.53837 1.40559,-4.33332 1.36019,-6.211 -0.0454,-1.87768 0.48783,-9.14433 1.18494,-16.14805 0.69711,-7.0038 1.18843,-14.33866 1.09179,-16.29971 -0.0966,-1.96105 0.33897,-6.66472 0.96802,-10.45262 0.62914,-3.78789 1.28053,-12.95642 1.44766,-20.37465 0.16705,-7.41815 0.35359,-14.54092 0.41441,-15.82839 0.0609,-1.28738 1.25957,-3.40819 2.6637,-4.71278 2.51345,-2.33525 2.53538,-2.49037 1.4176,-10.02451 -1.03843,-6.9999 -0.94187,-8.20532 1.13199,-14.133761 1.24707,-3.564661 2.64112,-6.955557 3.09801,-7.535316 0.45689,-0.579759 3.64276,-1.13225 7.07982,-1.227757 3.43706,-0.09551 6.79129,-0.624675 7.4538,-1.175941 0.6626,-0.551257 4.84963,-0.828497 9.3045,-0.616078 4.45495,0.212418 11.0722,-0.03065 14.70498,-0.540139 6.12544,-0.859073 6.72534,-0.768328 8.26143,1.249579 1.72174,2.261742 5.20127,2.760736 10.30176,1.477367 2.22849,-0.560726 2.77633,-1.283423 2.77633,-3.662588 0,-2.719284 -2.18601,-6.165745 -3.91084,-6.165745 -0.39444,0 -2.21907,-1.375284 -4.05474,-3.05619 -1.83576,-1.680907 -3.755,-3.056199 -4.26508,-3.056199 -0.51,0 -1.61121,-1.325817 -2.44711,-2.946264 -1.17008,-2.2685 -2.40333,-3.057118 -5.36093,-3.428136 -2.11268,-0.265036 -5.33713,-1.106326 -7.16542,-1.869554 -2.33536,-0.974885 -3.84668,-1.081763 -5.08083,-0.359286 -0.99142,0.580403 -3.96997,0.744314 -6.8375,0.376275 -2.93161,-0.376259 -5.63266,-0.217605 -6.38523,0.375056 -1.12964,0.889523 -5.40576,1.167329 -12.92193,0.839499 -5.29458,-0.23094 -6.86096,-0.002 -8.93864,1.306463 -1.23156,0.775589 -4.5256,1.731976 -7.32005,2.125303 -2.79444,0.393319 -5.5577,1.107992 -6.14054,1.58815 -0.61079,0.503119 -3.10126,0.138993 -5.878,-0.859387 -3.53963,-1.272674 -5.01124,-1.420593 -5.54536,-0.557387 -0.81819,1.322203 -12.15668,3.688362 -13.54684,2.827003 -0.49416,-0.306189 -1.47014,-0.185835 -2.16871,0.267464 -1.98096,1.285356 -18.36805,3.152208 -20.04309,2.283352 -0.82388,-0.427384 -2.29866,-0.347475 -3.27724,0.177576 -0.97858,0.525043 -7.50658,0.76344 -14.50658,0.529758 -11.66544,-0.389413 -12.72742,-0.274175 -12.72742,1.381083 0,0.993273 0.7209,2.405717 1.60195,3.138763 1.12874,0.939186 1.42256,2.291202 0.99466,4.57776 -0.50334,2.689934 -0.17923,3.526078 1.89512,4.888679 1.37635,0.90406 3.95145,3.755155 5.72248,6.335777 l 3.22007,4.692031 7.25515,-0.682109 c 3.99035,-0.375167 8.85565,-1.082713 10.81176,-1.572325 1.95611,-0.489611 8.72133,-1.117005 15.0338,-1.394198 l 11.47728,-0.503983 1.01228,2.669244 c 0.5567,1.46808 0.70921,3.392437 0.33881,4.276331 -0.3704,0.88391 -0.74843,9.85881 -0.84004,19.94429 -0.11767,12.94448 -0.55832,19.04563 -1.49857,20.74627 -0.7326,1.32502 -1.11388,3.84643 -0.84735,5.60302 0.26653,1.75667 0.0382,4.04839 -0.50756,5.09272 -0.71619,1.3706 -0.50586,2.80414 0.75623,5.15362 1.62363,3.02252 1.63062,3.48339 0.0977,6.45515 -0.90793,1.7602 -1.65076,4.60749 -1.65076,6.3273 0,1.71989 -1.17868,4.99897 -2.61935,7.28692 l -2.61944,4.15989 2.17733,2.03359 c 1.98851,1.85725 2.03943,2.18642 0.58707,3.79528 -0.87463,0.96889 -1.59026,2.29863 -1.59026,2.95486 0,0.65622 -0.39192,1.19316 -0.87098,1.19316 -1.28539,0 -2.21533,16.55463 -1.01155,18.00876 0.66909,0.8082 0.64245,1.90062 -0.0793,3.25252 -1.52075,2.84878 -1.35321,5.92403 0.3587,6.58261 0.79505,0.30583 1.5953,1.61082 1.77834,2.90009 0.1997,1.40635 1.1458,2.47395 2.36517,2.66875 1.11778,0.17861 2.71827,0.58605 3.5566,0.90548 0.83833,0.31935 2.43882,0.71736 3.5566,0.88443 1.11778,0.16706 4.31868,0.99404 7.11312,1.83776 2.79445,0.84364 7.28927,1.56485 9.98837,1.60265 4.83014,0.0677 4.89828,0.0246 4.32055,-2.73272 z"
   id="path2498"
   sodipodi:nodetypes="csssssssssssssccssssssssssssssssssssccsssssscccssssssssscccssccssscccssssssccsssssssssssscccsssssccssssccssccsssssssscccsssssccsssscccsssssssssccsssssssssssssccsssccssscccsssssssssccssccsssssssssssssssssccsssssscccssssccsssssssssccssscccsssscccssssssccssssscccssscccssccsscccsssssssccssccsssssssccsssssscccccsssccsssssssccsssccsssssssssssssssssssssssscccssssssssssssssssssssssssssssssssssssssssssssssssssssssssssssssssssssssssssssccsssssssssssssssccsscccssssssssssccsssssssssssssssssssssssssssssssssssssssssssssscccscccsssssssscccssssssssssssc" /></svg>